<?xml version="1.0" encoding="UTF-8"?>
<svg xmlns="http://www.w3.org/2000/svg" width="932" height="462" viewBox="0 0 932 462" font-family='"Inter", ui-sans-serif, system-ui, -apple-system, "Segoe UI", Roboto, Helvetica, Arial, sans-serif' font-variant-numeric="tabular-nums"><defs><filter id="cardShadow" x="-10%" y="-10%" width="120%" height="130%"><feDropShadow dx="0" dy="2" stdDeviation="7" flood-color="#1e293b" flood-opacity="0.12"/></filter></defs><rect x="16" y="16" width="900" height="430" rx="16" fill="#ffffff" stroke="#e6eaf0" filter="url(#cardShadow)"/><g transform="translate(16,16)"><text x="30" y="40" font-size="18" font-weight="700" fill="#0f172a" text-anchor="start" letter-spacing="-0.2">tldts — registrable-domain throughput</text><text x="30" y="62" font-size="13" font-weight="400" fill="#5b6675" text-anchor="start">getDomain() on generic hostnames · vs popular public-suffix libraries · higher is better</text><text x="266" y="109.6" font-size="13" font-weight="500" fill="#0f172a" text-anchor="end">tldts</text><path d="M280,92 H777 A7,7 0 0 1 784,99 V111 A7,7 0 0 1 777,118 H280 Z" fill="#eceff5"/><path d="M280,92 H777 A7,7 0 0 1 784,99 V111 A7,7 0 0 1 777,118 H280 Z" fill="#4f46e5"/><text x="800" y="109.6" font-size="13" font-weight="700" fill="#0f172a" text-anchor="start">8.3M/s</text><text x="266" y="151.6" font-size="13" font-weight="500" fill="#5b6675" text-anchor="end">new URL() · host only</text><path d="M280,134 H777 A7,7 0 0 1 784,141 V153 A7,7 0 0 1 777,160 H280 Z" fill="#eceff5"/><path d="M280,134 H494.43 A7,7 0 0 1 501.43,141 V153 A7,7 0 0 1 494.43,160 H280 Z" fill="#c2cad6"/><text x="800" y="151.6" font-size="13" font-weight="700" fill="#5b6675" text-anchor="start">3.6M/s</text><text x="266" y="193.6" font-size="13" font-weight="500" fill="#0f172a" text-anchor="end">tldjs</text><path d="M280,176 H777 A7,7 0 0 1 784,183 V195 A7,7 0 0 1 777,202 H280 Z" fill="#eceff5"/><path d="M280,176 H424.13 A7,7 0 0 1 431.13,183 V195 A7,7 0 0 1 424.13,202 H280 Z" fill="#475569"/><text x="800" y="193.6" font-size="13" font-weight="700" fill="#0f172a" text-anchor="start">2.5M/s</text><text x="266" y="235.6" font-size="13" font-weight="500" fill="#5b6675" text-anchor="end">tld-extract  ·  83% correct</text><path d="M280,218 H777 A7,7 0 0 1 784,225 V237 A7,7 0 0 1 777,244 H280 Z" fill="#eceff5"/><path d="M280,218 H406.02 A7,7 0 0 1 413.02,225 V237 A7,7 0 0 1 406.02,244 H280 Z" fill="#c2cad6"/><text x="800" y="235.6" font-size="13" font-weight="700" fill="#5b6675" text-anchor="start">2.2M/s</text><text x="266" y="277.6" font-size="13" font-weight="500" fill="#5b6675" text-anchor="end">haraka-tld  ·  96% correct</text><path d="M280,260 H777 A7,7 0 0 1 784,267 V279 A7,7 0 0 1 777,286 H280 Z" fill="#eceff5"/><path d="M280,260 H319.17 A7,7 0 0 1 326.17,267 V279 A7,7 0 0 1 319.17,286 H280 Z" fill="#c2cad6"/><text x="800" y="277.6" font-size="13" font-weight="700" fill="#5b6675" text-anchor="start">758k/s</text><text x="266" y="319.6" font-size="13" font-weight="500" fill="#0f172a" text-anchor="end">psl</text><path d="M280,302 H777 A7,7 0 0 1 784,309 V321 A7,7 0 0 1 777,328 H280 Z" fill="#eceff5"/><path d="M280,302 H311.92 A7,7 0 0 1 318.92,309 V321 A7,7 0 0 1 311.92,328 H280 Z" fill="#475569"/><text x="800" y="319.6" font-size="13" font-weight="700" fill="#0f172a" text-anchor="start">639k/s</text><text x="266" y="361.6" font-size="13" font-weight="500" fill="#5b6675" text-anchor="end">parse-domain  ·  83% correct</text><path d="M280,344 H777 A7,7 0 0 1 784,351 V363 A7,7 0 0 1 777,370 H280 Z" fill="#eceff5"/><text x="800" y="361.6" font-size="13" font-weight="700" fill="#5b6675" text-anchor="start">5k/s</text><text x="30" y="398" font-size="11.5" font-weight="400" fill="#9aa4b2" text-anchor="start">Node 26.0.0 · median of 5 runs. Greyed = not 100% PSL-correct (a wrong answer makes speed moot). new URL() is a native-parse reference floor —</text><text x="30" y="414" font-size="11.5" font-weight="400" fill="#9aa4b2" text-anchor="start">hostname only, no public-suffix lookup.</text></g></svg>